<svg width="22" height="22" viewBox="0 0 22 22" fill="none" xmlns="http://www.w3.org/2000/svg">
<path fill-rule="evenodd" clip-rule="evenodd" d="M17.1482 8.06322C17.1482 9.21449 17.4525 9.89307 18.1221 10.675C18.6296 11.2511 18.7917 11.9907 18.7917 12.7929C18.7917 13.5943 18.5285 14.355 18.001 14.9727C17.3104 15.7131 16.3365 16.1858 15.3425 16.268C13.9022 16.3908 12.4609 16.4942 11.0005 16.4942C9.53922 16.4942 8.09887 16.4323 6.65851 16.268C5.66366 16.1858 4.68976 15.7131 4.0001 14.9727C3.47261 14.355 3.2084 13.5943 3.2084 12.7929C3.2084 11.9907 3.37148 11.2511 3.87802 10.675C4.56859 9.89307 4.85283 9.21449 4.85283 8.06322V7.67269C4.85283 6.1309 5.23729 5.12273 6.02898 4.13579C7.20605 2.69647 9.09281 1.83325 10.9595 1.83325H11.0415C12.9483 1.83325 14.8961 2.73802 16.0532 4.23919C16.8039 5.20582 17.1482 6.17152 17.1482 7.67269V8.06322ZM8.31755 18.389C8.31755 17.9274 8.74119 17.716 9.13293 17.6255C9.59119 17.5286 12.3835 17.5286 12.8418 17.6255C13.2335 17.716 13.6572 17.9274 13.6572 18.389C13.6344 18.8285 13.3766 19.2181 13.0203 19.4655C12.5584 19.8256 12.0164 20.0536 11.4497 20.1358C11.1363 20.1764 10.8284 20.1773 10.5259 20.1358C9.95833 20.0536 9.41627 19.8256 8.95528 19.4646C8.59815 19.2181 8.34033 18.8285 8.31755 18.389Z" fill="#60708F"/>
</svg>
