<svg width="18" height="20" viewBox="0 0 18 20" fill="none" xmlns="http://www.w3.org/2000/svg">
<path fill-rule="evenodd" clip-rule="evenodd" d="M16.702 11.4485C17.0299 11.6227 17.2829 11.8977 17.4609 12.1727C17.8075 12.741 17.7794 13.4377 17.4421 14.0518L16.7864 15.1518C16.4397 15.7385 15.7934 16.1052 15.1282 16.1052C14.8004 16.1052 14.435 16.0135 14.1352 15.8302C13.8917 15.6743 13.6106 15.6193 13.3109 15.6193C12.3834 15.6193 11.6059 16.3802 11.5778 17.2877C11.5778 18.3418 10.7159 19.1668 9.63862 19.1668H8.36458C7.2779 19.1668 6.41605 18.3418 6.41605 17.2877C6.39731 16.3802 5.61977 15.6193 4.69235 15.6193C4.3832 15.6193 4.10217 15.6743 3.86797 15.8302C3.56819 16.0135 3.19347 16.1052 2.87496 16.1052C2.20047 16.1052 1.55409 15.7385 1.20747 15.1518L0.561083 14.0518C0.214469 13.456 0.195733 12.741 0.542347 12.1727C0.692234 11.8977 0.973273 11.6227 1.29178 11.4485C1.55409 11.3202 1.72271 11.1093 1.88196 10.8618C2.35036 10.0735 2.06932 9.03766 1.27305 8.57016C0.34562 8.04766 0.0458463 6.8835 0.579819 5.976L1.20747 4.89433C1.75081 3.98683 2.91244 3.666 3.84923 4.19766C4.66424 4.63766 5.72282 4.34433 6.20058 3.56516C6.35047 3.3085 6.43478 3.0335 6.41605 2.7585C6.39731 2.401 6.50036 2.06183 6.67835 1.78683C7.02496 1.2185 7.65262 0.851829 8.33648 0.833496H9.65736C10.3506 0.833496 10.9782 1.2185 11.3248 1.78683C11.4935 2.06183 11.6059 2.401 11.5778 2.7585C11.559 3.0335 11.6434 3.3085 11.7932 3.56516C12.271 4.34433 13.3296 4.63766 14.154 4.19766C15.0814 3.666 16.2524 3.98683 16.7864 4.89433L17.414 5.976C17.9574 6.8835 17.6576 8.04766 16.7208 8.57016C15.9245 9.03766 15.6435 10.0735 16.1212 10.8618C16.2711 11.1093 16.4397 11.3202 16.702 11.4485ZM6.3505 10.0093C6.3505 11.4485 7.54023 12.5943 9.011 12.5943C10.4818 12.5943 11.6434 11.4485 11.6434 10.0093C11.6434 8.57017 10.4818 7.41517 9.011 7.41517C7.54023 7.41517 6.3505 8.57017 6.3505 10.0093Z" fill="#60708F"/>
</svg>
